<!-- Paperclip icon for file upload -->
<svg xmlns="http://www.w3.org/2000/svg" width="48" height="48" viewBox="0 0 48 48" fill="none">
  <path d="M14 24V12C14 8.68629 16.6863 6 20 6C23.3137 6 26 8.68629 26 12V24C26 30.6274 20.6274 36 14 36C7.37258 36 2 30.6274 2 24V12" stroke="#7f8c8d" stroke-width="3" stroke-linecap="round" stroke-linejoin="round"/>
  <path d="M14 24V12C14 10.8954 14.8954 10 16 10C17.1046 10 18 10.8954 18 12V24C18 27.3137 15.3137 30 12 30C8.68629 30 6 27.3137 6 24V12" stroke="#3498db" stroke-width="2" stroke-linecap="round" stroke-linejoin="round"/>
</svg>
